<svg width="1200" height="1200" viewBox="0 0 1200 1200" fill="none" xmlns="http://www.w3.org/2000/svg">
<path d="M1059.38 1068.75L1051.53 1136.72H93.75L101.281 1068.75H1059.38Z" fill="#EA580C" stroke="#EA580C"/>
<path d="M93.75 1036.27C93.75 1031.75 99.2373 975.554 105.944 911.374C112.651 847.205 118.138 793.995 118.138 793.123C118.138 792.262 272.596 790.789 461.369 789.858C781.726 788.275 805.739 787.433 821.581 777.196C844.922 762.12 856.293 734.033 848.255 711.314C836.173 677.146 822.465 675.182 566.268 670.835C350.19 667.169 332.184 666.037 298.914 654.026C251.886 637.048 227.772 621.852 200.336 591.921C138.573 524.526 120.983 410.512 155.401 300.545C194.503 175.602 256.876 114.068 378.399 80.5506C424.31 67.8891 438.383 67.3381 766.149 65.3448L1106.25 63.2812L1103.22 77.1348C1101.55 84.7478 1095.56 141.605 1089.9 203.47L1079.63 315.961L758.649 317.664C461.359 319.247 436.443 320.168 420.916 330.205C387.138 352.033 384.364 391.029 415.184 410.953C429.736 420.359 455.374 421.952 645.245 425.227C807.639 428.032 866.241 431.067 889.41 437.849C1013.72 474.261 1070.07 554.307 1070.07 694.445C1070.07 837.529 1008.3 956.08 910.221 1001.28C829.598 1038.42 820.056 1039.24 439.755 1041.99C150.086 1044.07 93.75 1043.14 93.75 1036.27Z" fill="black"/>
</svg>
